<svg version="1.1" 
	xmlns="http://www.w3.org/2000/svg" 
	xmlns:xlink="http://www.w3.org/1999/xlink" viewBox="0 0 24 24">
	<g>
		<circle style="fill:#18D150;" cx="12" cy="12" r="10"/>
		<path style="fill:#FFFFFF;" d="M13.2,10.2c0,0.2-0.1,0.3-0.3,0.4l-0.6,0.2l-0.1,2.7c0,0.7-0.6,1.2-1.2,1.2
				c-0.3,0-0.7-0.1-0.9-0.4v3.3c0,0.1,0.1,0.3,0.2,0.4c0.1,0,0.1,0,0.2,0s0.2,0,0.2-0.1l7.8-5.6c0.2-0.1,0.3-0.3,0.1-0.5l-0.1-0.1
				l-7.8-5.6c-0.1-0.1-0.3-0.1-0.4,0c-0.1,0.1-0.2,0.2-0.2,0.3v3.5l0.8-0.3l2.3-0.7V10.2z"/>
		<path style="fill:#FFFFFF;" d="M7.1,11.3v3.1l0,0c-0.1-0.1-0.3-0.1-0.5-0.1c-0.4-0.1-0.8,0.2-0.9,0.6c-0.1,0.4,0.2,0.8,0.6,0.9
				c0.1,0,0.2,0,0.2,0c0.5,0,0.9-0.3,0.9-0.8l0,0l0.1-3l0.9-0.3v-0.9L7.1,11.3z"/>
		<path style="fill:#FFFFFF;" d="M9.3,10.5v3.2l0,0c-0.1-0.2-0.3-0.2-0.5-0.2c-0.4-0.1-0.8,0.2-0.9,0.6c-0.1,0.4,0.2,0.8,0.6,0.9
				c0.1,0,0.2,0,0.2,0c0.4,0,0.8-0.3,0.9-0.8l0,0l0.1-3l0.9-0.3v-0.8L9.3,10.5z"/>
		<path style="fill:#FFFFFF;" d="M11.5,9.8V13l0,0c-0.2-0.1-0.4-0.2-0.6-0.2c-0.4,0-0.8,0.3-0.9,0.7s0.3,0.8,0.7,0.9
				c0.1,0,0.1,0,0.2,0c0.4,0,0.8-0.3,0.9-0.8l0,0l0.1-3l0.9-0.3V9.5L11.5,9.8z"/>
	</g>
</svg>
