<svg xmlns="http://www.w3.org/2000/svg" 
  xmlns:xlink="http://www.w3.org/1999/xlink" viewBox="0 0 24 24">
  <defs>
    <symbol id="material_system_icon_border" data-name="material_system_icon_border" viewBox="0 0 48 48">
      <rect width="48" height="48" style="fill:none"/>
    </symbol>
  </defs>
  <title>icon</title>
  <g id="图层_2" data-name="图层 2">
    <g id="icon">
      <circle cx="12" cy="12" r="10" style="fill:#18d150"/>
      <path d="M13.17,10.23a.39.39,0,0,1-.28.38l-.57.19-.08,2.71A1.21,1.21,0,0,1,11,14.67a1.3,1.3,0,0,1-.9-.36v3.27a.4.4,0,0,0,.22.35.41.41,0,0,0,.18.05.4.4,0,0,0,.23-.08l7.81-5.58a.39.39,0,0,0,0-.64L10.71,6.1a.38.38,0,0,0-.41,0,.4.4,0,0,0-.22.35V9.87l.8-.28,2.26-.74Z" style="fill:#fff"/>
      <path d="M7.14,11.32v3.14h0a.87.87,0,0,0-.58-.2.77.77,0,1,0,0,1.52A.81.81,0,0,0,7.42,15l.07-3,.86-.28v-.85Z" style="fill:#fff"/>
      <path d="M9.33,10.53v3.15h0a.92.92,0,0,0-.58-.2.77.77,0,1,0,0,1.52.81.81,0,0,0,.86-.76l.07-3,.86-.29v-.84Z" style="fill:#fff"/>
      <path d="M11.52,9.79v3.15h0a1,1,0,0,0-.58-.2.77.77,0,1,0,0,1.53.81.81,0,0,0,.86-.76l.07-3,.86-.29V9.39Z" style="fill:#fff"/>
      <use id="material_system_icon_border-3" data-name="material_system_icon_border" width="48" height="48" transform="scale(0.5)" xlink:href="#material_system_icon_border"/>
    </g>
  </g>
</svg>